<?xml version="1.0" standalone="no"?>
<!DOCTYPE svg PUBLIC "-//W3C//DTD SVG 20010904//EN"
 "http://www.w3.org/TR/2001/REC-SVG-20010904/DTD/svg10.dtd">
<svg version="1.0" xmlns="http://www.w3.org/2000/svg"
 width="339.000000pt" height="338.000000pt" viewBox="0 0 339.000000 338.000000"
 preserveAspectRatio="xMidYMid meet">

<g transform="translate(0.000000,338.000000) scale(0.100000,-0.100000)"
fill="#000000" stroke="none">
<path d="M1654 3147 c-63 -43 -111 -98 -138 -156 -19 -42 -21 -67 -24 -303
l-3 -258 -35 0 c-27 0 -34 -4 -34 -19 0 -15 8 -21 33 -23 l32 -3 3 -151 c4
-209 -3 -226 -145 -365 -59 -57 -129 -128 -155 -158 -45 -51 -62 -91 -37 -91
6 0 80 66 165 147 129 123 160 158 187 212 l32 65 6 266 c6 257 7 267 32 329
42 102 55 111 153 111 98 0 110 -8 143 -98 33 -89 41 -161 41 -387 l0 -211 34
-69 c27 -57 55 -91 147 -181 141 -138 193 -184 208 -184 39 0 -23 82 -174 229
-125 122 -161 172 -165 231 -1 14 -2 91 -1 172 l1 147 35 -6 c31 -5 35 -3 35
16 0 17 -6 21 -35 21 l-35 0 0 218 c0 250 -10 315 -60 391 -36 57 -124 128
-167 137 -21 4 -41 -4 -79 -29z"/>
<path d="M1648 2553 c-39 -46 -26 -78 18 -44 34 27 84 27 118 0 20 -16 30 -19
39 -10 8 8 6 18 -10 38 -18 25 -27 28 -85 31 -52 2 -67 -1 -80 -15z"/>
<path d="M820 2025 c0 -353 2 -405 15 -405 13 0 15 49 15 384 l0 383 55 7 c31
3 112 3 180 0 123 -7 125 -7 125 14 0 22 -2 22 -195 22 l-195 0 0 -405z"/>
<path d="M2240 2409 c0 -22 2 -22 108 -16 60 3 136 3 170 0 l62 -6 0 -383 c0
-378 0 -384 20 -384 20 0 20 5 18 403 l-3 402 -187 3 c-187 2 -188 2 -188 -19z"/>
<path d="M490 1430 c-13 -9 -13 -10 0 -9 8 1 26 5 40 9 l25 8 -25 1 c-14 0
-32 -4 -40 -9z"/>
<path d="M3092 1429 c2 -6 8 -10 13 -10 5 0 11 4 13 10 2 6 -4 11 -13 11 -9 0
-15 -5 -13 -11z"/>
<path d="M330 1419 c0 -5 5 -7 10 -4 6 3 10 8 10 11 0 2 -4 4 -10 4 -5 0 -10
-5 -10 -11z"/>
<path d="M2120 1395 c-46 -21 -68 -42 -91 -87 -26 -50 -25 -110 2 -134 32 -29
116 -25 167 8 71 47 106 163 62 203 -26 24 -97 29 -140 10z m64 -51 c34 -13 4
-108 -38 -124 -53 -20 -73 19 -41 80 21 41 48 56 79 44z"/>
<path d="M1327 1348 c-20 -29 -44 -64 -54 -78 -9 -14 -30 -41 -45 -61 -15 -20
-28 -40 -28 -43 0 -3 17 -6 38 -6 26 0 41 6 50 20 9 15 23 20 52 20 33 0 40
-3 40 -20 0 -17 7 -20 40 -20 l40 0 0 74 c0 40 -3 94 -6 120 l-7 46 -42 0
c-40 0 -44 -3 -78 -52z m55 -63 c-3 -26 -9 -35 -23 -35 -10 0 -19 3 -19 6 0 6
40 64 44 64 1 0 0 -16 -2 -35z"/>
<path d="M1522 1280 l-40 -120 104 0 c99 0 105 1 113 23 13 33 6 37 -59 37
-53 0 -58 2 -53 20 5 17 14 20 64 20 53 0 61 3 68 23 8 21 6 22 -46 25 -45 3
-54 6 -51 20 2 13 17 18 67 22 55 4 65 8 72 28 8 22 8 22 -95 22 l-104 0 -40
-120z"/>
<path d="M1805 1388 c-2 -7 -20 -60 -40 -116 -19 -57 -35 -106 -35 -108 0 -2
17 -4 38 -4 37 0 39 2 56 50 21 59 39 55 50 -10 6 -40 6 -40 52 -40 l45 0 -7
38 c-4 20 -10 43 -14 51 -5 9 2 23 22 39 37 32 52 67 38 93 -9 17 -22 19 -106
19 -67 0 -96 -4 -99 -12z m123 -55 c-3 -16 -54 -40 -65 -30 -2 3 -2 15 2 26 8
27 68 31 63 4z"/>
<path d="M816 892 c-13 -21 2 -349 17 -355 7 -3 62 -26 122 -50 61 -24 250
-101 422 -171 172 -69 321 -126 331 -126 10 0 79 25 153 55 74 31 222 90 329
132 107 42 245 97 305 122 l110 46 7 170 c7 171 3 190 -29 178 -10 -4 -13 -40
-13 -163 l0 -157 -87 -35 c-502 -203 -768 -308 -777 -308 -6 0 -108 39 -226
86 -118 47 -260 104 -315 125 -55 22 -148 60 -207 86 l-108 45 -2 161 c-2 110
-7 162 -15 164 -6 2 -14 0 -17 -5z"/>
<path d="M3100 821 c0 -5 -8 -12 -17 -14 -11 -3 -8 -5 9 -6 20 -1 26 3 22 14
-7 17 -14 20 -14 6z"/>
<path d="M753 803 c9 -2 23 -2 30 0 6 3 -1 5 -18 5 -16 0 -22 -2 -12 -5z"/>
<path d="M2643 803 c9 -2 23 -2 30 0 6 3 -1 5 -18 5 -16 0 -22 -2 -12 -5z"/>
<path d="M1245 755 c-34 -33 -31 -51 10 -66 23 -9 35 -19 33 -29 -4 -21 -37
-25 -51 -6 -11 15 -15 15 -31 3 -19 -14 -19 -15 6 -31 34 -22 84 -10 112 28
l21 28 -24 19 c-13 10 -29 19 -37 19 -8 0 -14 7 -14 15 0 8 9 15 20 15 11 0
20 -4 20 -10 0 -12 20 -13 39 -1 12 8 12 12 2 25 -21 25 -78 20 -106 -9z"/>
<path d="M1433 765 c-49 -21 -79 -95 -54 -134 14 -22 76 -18 108 5 16 12 35
40 43 63 15 42 14 43 -9 62 -27 22 -45 23 -88 4z m52 -26 c12 -18 -5 -78 -25
-89 -10 -5 -26 -7 -35 -4 -23 9 -13 63 16 87 24 20 35 21 44 6z"/>
<path d="M1614 761 c-59 -36 -73 -127 -22 -143 32 -11 98 15 98 38 0 19 -19
18 -41 -2 -45 -41 -67 24 -25 73 22 25 27 26 45 16 27 -17 51 -16 51 0 0 39
-56 48 -106 18z"/>
<path d="M1750 713 c-12 -38 -24 -74 -27 -81 -4 -10 2 -13 18 -10 18 2 27 17
46 72 28 85 28 86 3 86 -15 0 -24 -14 -40 -67z"/>
<path d="M1832 702 c-12 -38 -22 -72 -22 -76 0 -13 123 -2 128 12 2 8 -9 12
-38 12 -34 0 -41 3 -38 18 2 12 16 18 47 22 60 7 67 30 10 30 -53 0 -41 17 15
22 22 2 41 9 44 16 3 9 -14 12 -60 12 l-64 0 -22 -68z"/>
<path d="M2007 763 c-14 -13 -6 -23 17 -23 l25 0 -20 -57 c-10 -31 -19 -58
-19 -60 0 -3 40 -4 40 0 0 1 9 27 19 57 15 47 22 56 46 60 16 3 30 11 33 18 3
9 -15 12 -65 12 -39 0 -73 -3 -76 -7z"/>
<path d="M2185 724 c9 -32 11 -54 4 -71 -12 -33 -12 -35 13 -31 14 2 24 13 29
32 5 16 27 49 51 73 33 34 38 43 23 43 -10 0 -31 -12 -46 -26 l-26 -25 -7 25
c-5 19 -13 26 -31 26 -24 0 -24 0 -10 -46z"/>
</g>
</svg>
